<!DOCTYPE svg PUBLIC "-//W3C//DTD SVG 1.1//EN" "http://www.w3.org/Graphics/SVG/1.1/DTD/svg11.dtd">
<!-- Uploaded to: SVG Repo, www.svgrepo.com, Transformed by: SVG Repo Mixer Tools -->
<svg height="64px" width="64px" version="1.1" id="Layer_1" xmlns="http://www.w3.org/2000/svg" xmlns:xlink="http://www.w3.org/1999/xlink" viewBox="0 0 511.999 511.999" xml:space="preserve" fill="#000000">
<g id="SVGRepo_bgCarrier" stroke-width="0"/>
<g id="SVGRepo_tracerCarrier" stroke-linecap="round" stroke-linejoin="round"/>
<g id="SVGRepo_iconCarrier"> <path style="fill:#F2CA7F;" d="M256,479.323c-66.998,0-130.119-9.613-177.734-27.066C27.795,433.756,0,408.006,0,379.749 c0-28.256,27.795-54.006,78.266-72.507c47.615-17.453,110.736-27.066,177.734-27.066s130.119,9.613,177.733,27.066 c50.471,18.501,78.266,44.251,78.266,72.507c0,28.257-27.795,54.007-78.266,72.507C386.119,469.71,322.999,479.323,256,479.323z M256,298.28c-64.926,0-125.833,9.219-171.502,25.96c-42.193,15.467-66.393,35.697-66.393,55.508 c0,19.811,24.199,40.042,66.393,55.509c45.67,16.741,106.576,25.96,171.502,25.96s125.833-9.219,171.502-25.96 c42.193-15.467,66.393-35.698,66.393-55.509c0-19.811-24.199-40.042-66.393-55.508C381.834,307.5,320.926,298.28,256,298.28z"/> <path style="fill:#8CC1EA;" d="M390.757,140.259c-31.241-143.444-238.274-143.444-269.515,0 c-3.126,14.356-4.774,29.265-4.774,44.559c0,90.97,58.278,168.316,139.531,196.776c81.253-28.46,139.531-105.805,139.531-196.776 C395.531,169.524,393.884,154.615,390.757,140.259z"/> <circle style="fill:#F2CA7F;" cx="255.994" cy="173.615" r="60.519"/> <path style="fill:#79B1D6;" d="M256,243.183c-38.362,0-69.572-31.21-69.572-69.573c0-38.362,31.21-69.572,69.572-69.572 s69.572,31.21,69.572,69.572S294.362,243.183,256,243.183z M256,122.143c-28.379,0-51.467,23.088-51.467,51.467 s23.088,51.468,51.467,51.468c28.379,0,51.467-23.088,51.467-51.468C307.467,145.232,284.379,122.143,256,122.143z"/> </g>
</svg>