<!DOCTYPE svg PUBLIC "-//W3C//DTD SVG 1.1//EN" "http://www.w3.org/Graphics/SVG/1.1/DTD/svg11.dtd">
<!-- Uploaded to: SVG Repo, www.svgrepo.com, Transformed by: SVG Repo Mixer Tools -->
<svg fill="#F2CA7F" width="64px" height="64px" viewBox="0 0 24 24" xmlns="http://www.w3.org/2000/svg" stroke="#F2CA7F" stroke-width="0.00024000000000000003">
<g id="SVGRepo_bgCarrier" stroke-width="0"/>
<g id="SVGRepo_tracerCarrier" stroke-linecap="round" stroke-linejoin="round"/>
<g id="SVGRepo_iconCarrier">
<path d="M4,7A4,4,0,1,0,8,3,4,4,0,0,0,4,7Zm6,0A2,2,0,1,1,8,5,2,2,0,0,1,10,7ZM2,21H14a1,1,0,0,0,1-1V17a4,4,0,0,0-4-4H5a4,4,0,0,0-4,4v3A1,1,0,0,0,2,21Zm1-4a2,2,0,0,1,2-2h6a2,2,0,0,1,2,2v2H3ZM23,4a1,1,0,0,1-1,1H16a1,1,0,0,1,0-2h6A1,1,0,0,1,23,4Zm0,4a1,1,0,0,1-1,1H16a1,1,0,0,1,0-2h6A1,1,0,0,1,23,8Zm0,4a1,1,0,0,1-1,1H16a1,1,0,0,1,0-2h6A1,1,0,0,1,23,12Z"/>
</g>
</svg>